<svg height="512pt" viewBox="0 0 512 512" width="512pt" xmlns="http://www.w3.org/2000/svg"><path d="m450 334h-2v-55.71875c0-68.417969-35.976562-128.578125-90-162.589844v-36.191406c0-43.835938-35.664062-79.5-79.5-79.5h-45c-43.835938 0-79.5 35.664062-79.5 79.5v36.191406c-54.023438 34.011719-90 94.171875-90 162.589844v55.71875h-2c-34.1875 0-62 27.8125-62 62v85c0 17.09375 13.90625 31 31 31h71.316406c.53125 0 1.050782-.054688 1.558594-.132812h304.246094c.511718.078124 1.03125.132812 1.5625.132812h71.316406c17.09375 0 31-13.90625 31-31v-85c0-34.1875-27.8125-62-62-62zm0 20c23.160156 0 42 18.839844 42 42v13.191406h-44v-55.191406zm-276-274.5c0-32.808594 26.691406-59.5 59.5-59.5h45c32.808594 0 59.5 26.691406 59.5 59.5v25.199219c-6.476562-3.074219-13.152344-5.796875-20-8.140625v-17.058594c0-21.78125-17.71875-39.5-39.5-39.5h-45c-21.78125 0-39.5 17.71875-39.5 39.5v17.058594c-6.847656 2.34375-13.523438 5.066406-20 8.140625zm124 11.421875c-13.523438-3.03125-27.574219-4.640625-42-4.640625s-28.476562 1.609375-42 4.640625v-11.421875c0-10.753906 8.746094-19.5 19.5-19.5h45c10.753906 0 19.5 8.746094 19.5 19.5zm-214 187.359375c0-94.839844 77.160156-172 172-172s172 77.160156 172 172v195.269531c0 10.097657-8.21875 18.316407-18.316406 18.316407h-307.367188c-10.101562 0-18.316406-8.21875-18.316406-18.316407zm-22 75.71875h2v55.191406h-44v-13.191406c0-23.160156 18.839844-42 42-42zm-42 127v-51.808594h44v44.359375c0 6.683594 1.726562 12.972657 4.746094 18.449219h-37.746094c-6.066406 0-11-4.933594-11-11zm461 11h-37.746094c3.019532-5.476562 4.746094-11.765625 4.746094-18.449219v-44.359375h44v51.808594c0 6.066406-4.933594 11-11 11zm0 0"/><path d="m175.417969 458.835938h39.082031c5.523438 0 10-4.480469 10-10 0-5.523438-4.476562-10-10-10h-39.082031c-11.8125 0-21.417969-9.609376-21.417969-21.417969v-73.164063c0-11.8125 9.605469-21.417968 21.417969-21.417968h161.164062c11.8125 0 21.417969 9.605468 21.417969 21.417968v73.164063c0 11.808593-9.605469 21.417969-21.417969 21.417969h-42.082031c-5.523438 0-10 4.476562-10 10 0 5.519531 4.476562 10 10 10h42.082031c22.839844 0 41.417969-18.582032 41.417969-41.417969v-73.164063c0-22.839844-18.578125-41.417968-41.417969-41.417968h-161.164062c-22.839844 0-41.417969 18.578124-41.417969 41.417968v73.164063c0 22.835937 18.578125 41.417969 41.417969 41.417969zm0 0"/><path d="m310.5 394c5.523438 0 10-4.476562 10-10v-13.871094h7.5c5.523438 0 10-4.480468 10-10 0-5.523437-4.476562-10-10-10h-147c-5.523438 0-10 4.476563-10 10 0 5.519532 4.476562 10 10 10h119.5v13.871094c0 5.523438 4.476562 10 10 10zm0 0"/><path d="m231.695312 266.128906h48.609376c15.820312 0 28.695312-12.875 28.695312-28.695312v-27.128906c0-15.820313-12.875-28.695313-28.695312-28.695313h-48.609376c-15.824218 0-28.695312 12.875-28.695312 28.695313v27.128906c0 15.820312 12.871094 28.695312 28.695312 28.695312zm-8.695312-55.824218c0-4.792969 3.898438-8.695313 8.695312-8.695313h48.609376c4.792968 0 8.695312 3.902344 8.695312 8.695313v27.128906c0 4.792968-3.902344 8.695312-8.695312 8.695312h-48.609376c-4.796874 0-8.695312-3.902344-8.695312-8.695312zm0 0"/><path d="m254.5 438.828125c-2.628906 0-5.210938 1.070313-7.070312 2.933594-1.859376 1.859375-2.929688 4.4375-2.929688 7.078125 0 2.628906 1.070312 5.210937 2.929688 7.058594 1.859374 1.871093 4.441406 2.941406 7.070312 2.941406s5.210938-1.070313 7.070312-2.941406c1.859376-1.847657 2.929688-4.429688 2.929688-7.058594 0-2.640625-1.070312-5.21875-2.929688-7.078125-1.859374-1.863281-4.441406-2.933594-7.070312-2.933594zm0 0"/></svg>