<svg height="480pt" viewBox="-23 0 479 480" width="480pt" xmlns="http://www.w3.org/2000/svg"><path d="m358.964844 60.96875-70.464844-11.746094v-41.222656c0-4.417969-3.582031-8-8-8h-128c-4.417969 0-8 3.582031-8 8v41.222656l-70.464844 11.746094c-42.492187 6.964844-73.648437 43.738281-73.535156 86.800781v300.230469c0 4.417969 3.582031 8 8 8h64c4.417969 0 8-3.582031 8-8v-16h8v24c0 13.253906 10.746094 24 24 24h168c4.417969 0 8-3.582031 8-8s-3.582031-8-8-8h-56v-32h104v24c0 4.417969-3.582031 8-8 8h-8c-4.417969 0-8 3.582031-8 8s3.582031 8 8 8h8c13.253906 0 24-10.746094 24-24v-24h8v16c0 4.417969 3.582031 8 8 8h64c4.417969 0 8-3.582031 8-8v-300.230469c.113281-43.0625-31.042969-79.835937-73.535156-86.800781zm-86.464844-44.96875v32h-48v-32zm-112 0h48v32h-48zm-96 424h-48v-24h48zm16-75.558594 60.242188-37.65625c3.753906-2.34375 4.898437-7.285156 2.558593-11.042968-2.34375-3.753907-7.285156-4.898438-11.039062-2.558594l-51.761719 32.417968v-161.601562c0-4.417969-3.582031-8-8-8s-8 3.582031-8 8v216h-48v-252.230469c-.089844-35.230469 25.402344-65.320312 60.167969-71.015625l76.488281-12.753906h55.34375v352h-128zm128 99.558594h-96c-4.417969 0-8-3.582031-8-8v-24h104zm128-48h-112v-352h55.34375l76.488281 12.753906c34.765625 5.695313 60.257813 35.785156 60.167969 71.015625v252.230469h-48v-216c0-4.417969-3.582031-8-8-8s-8 3.582031-8 8v161.601562l-51.757812-32.34375c-3.757813-2.34375-8.699219-1.199218-11.042969 2.558594-2.339844 3.753906-1.195313 8.699219 2.5625 11.039063l60.238281 37.585937v51.558594zm32 24v-24h48v24zm0 0"/><path d="m328.5 168c0-22.089844-17.910156-40-40-40s-40 17.910156-40 40 17.910156 40 40 40c22.082031-.027344 39.972656-17.917969 40-40zm-40 24c-13.253906 0-24-10.746094-24-24s10.746094-24 24-24 24 10.746094 24 24-10.746094 24-24 24zm0 0"/><path d="m192.5 184v-32c0-4.417969-3.582031-8-8-8h-80c-4.417969 0-8 3.582031-8 8v32c0 4.417969 3.582031 8 8 8h80c4.417969 0 8-3.582031 8-8zm-16-8h-64v-16h64zm0 0"/></svg>