<?xml version="1.0" encoding="iso-8859-1"?>
<!-- Generator: Adobe Illustrator 19.0.0, SVG Export Plug-In . SVG Version: 6.00 Build 0)  -->
<svg version="1.1" id="Capa_1" xmlns="http://www.w3.org/2000/svg" xmlns:xlink="http://www.w3.org/1999/xlink" x="0px" y="0px"
	 viewBox="0 0 470 470" style="enable-background:new 0 0 470 470;" xml:space="preserve">
<g>
	<path d="M390.808,227.801c-5.253-1.24-10.686-2.521-16.345-3.934c-25.969-6.481-57.553-15.586-87.075-29.561l0.764-1.923
		c1.528-3.85-0.354-8.209-4.203-9.738c-3.85-1.528-8.209,0.354-9.738,4.203l-0.265,0.666c-7.526-4.072-14.821-8.512-21.762-13.344
		l0.772-1.063c2.435-3.351,1.692-8.041-1.659-10.476c-3.349-2.433-8.041-1.693-10.476,1.659l-0.601,0.827
		c-6.547-5.392-12.652-11.206-18.143-17.514c0.55-0.409,0.862-0.64,0.903-0.67c3.326-2.468,4.021-7.166,1.553-10.492
		s-7.166-4.022-10.492-1.553c-0.048,0.035-0.471,0.349-1.217,0.903l-25.728-34.52c-2.476-3.322-7.175-4.008-10.496-1.532
		c-12.51,9.324-20.614,22.961-22.819,38.399c-1.818,12.73,0.579,25.393,6.774,36.375c-9.258,6.844-17.286,12.764-21.582,15.899
		c-13.089,9.555-39.605,11.926-57.907,5.175l-70.972-26.177c-2.3-0.849-4.872-0.519-6.884,0.884C1.199,171.698,0,173.996,0,176.449
		v187.798c0,4.142,3.358,7.5,7.5,7.5h455c4.143,0,7.5-3.358,7.5-7.5V303.58C470,246.485,436.782,238.648,390.808,227.801z
		 M454.767,296.08h-74.62v-55.39c2.445,0.584,4.852,1.153,7.217,1.711C429.773,252.407,452.287,257.724,454.767,296.08z
		 M268.384,201.521L255.2,234.726c-11.816-6.104-22.686-12.647-32.715-19.678l20.891-28.755
		C251.356,191.862,259.749,196.919,268.384,201.521z M231.387,177.277l-20.922,28.797c-11.11-8.872-20.852-18.344-29.09-28.301
		c10.267-7.6,20.747-15.368,28.622-21.207C216.449,164.091,223.648,170.97,231.387,177.277z M168.632,140.261
		c1.276-8.94,5.221-17.067,11.305-23.494l20.84,27.962c-7.764,5.757-17.991,13.337-28.033,20.77
		C168.831,157.777,167.377,149.043,168.632,140.261z M75.877,209.662c23.158,8.54,54.758,5.408,71.941-7.132
		c4.288-3.129,12.269-9.015,21.482-15.825c9.137,11.144,19.971,21.694,32.34,31.515l-2.421,3.332
		c-2.435,3.351-1.692,8.041,1.659,10.476c1.331,0.967,2.874,1.433,4.402,1.433c2.319,0,4.606-1.072,6.074-3.092l2.312-3.183
		c11.017,7.738,22.956,14.908,35.968,21.557l-1.207,3.04c-1.528,3.85,0.354,8.209,4.203,9.738c0.908,0.36,1.845,0.531,2.766,0.531
		c2.983,0,5.805-1.792,6.973-4.734l0.804-2.024c14.181,6.511,29.526,12.504,46.201,18.036c3.928,1.301,8.176-0.825,9.479-4.757
		c1.305-3.932-0.825-8.176-4.757-9.48c-16.433-5.452-31.512-11.346-45.383-17.752l13.131-33.071
		c28.254,13.277,57.985,22.211,83.302,28.712v59.1H15V187.209L75.877,209.662z M15,341.414h245.611c4.143,0,7.5-3.358,7.5-7.5
		s-3.357-7.5-7.5-7.5H15V311.08h268.111v45.667H15V341.414z M298.111,356.747V311.08H455v45.667H298.111z"/>
</g>
<g>
</g>
<g>
</g>
<g>
</g>
<g>
</g>
<g>
</g>
<g>
</g>
<g>
</g>
<g>
</g>
<g>
</g>
<g>
</g>
<g>
</g>
<g>
</g>
<g>
</g>
<g>
</g>
<g>
</g>
</svg>
