<?xml version="1.0" encoding="UTF-8" ?>
<!DOCTYPE svg PUBLIC "-//W3C//DTD SVG 1.1//EN" "http://www.w3.org/Graphics/SVG/1.1/DTD/svg11.dtd">
<svg width="972pt" height="804pt" viewBox="0 0 972 804" version="1.1" xmlns="http://www.w3.org/2000/svg">
<g id="#ffffffff">
<path fill="#ffffff" opacity="1.00" d=" M 453.85 68.91 C 458.94 67.89 464.22 68.63 469.28 67.44 C 481.47 67.02 493.68 67.14 505.88 67.31 C 508.58 67.74 511.27 68.32 514.03 68.19 C 583.16 73.20 650.42 100.85 703.11 145.87 C 755.05 189.38 793.14 249.20 810.35 314.76 C 830.50 389.77 823.42 471.90 790.06 542.11 C 785.49 552.40 779.80 562.21 774.34 572.04 C 774.13 577.04 774.29 582.06 774.34 587.07 C 778.02 586.98 781.50 588.30 785.08 589.01 C 824.45 597.80 862.55 611.22 900.26 625.40 C 880.93 638.19 858.68 645.46 838.63 657.02 C 844.06 665.88 848.89 675.10 853.63 684.35 C 863.32 702.15 872.19 720.36 882.30 737.92 C 871.94 733.91 860.96 731.84 850.43 728.35 C 824.06 720.50 797.87 712.07 771.40 704.56 C 747.44 697.77 723.26 691.67 698.89 686.58 C 700.64 682.19 699.77 677.42 700.98 672.93 C 701.14 667.37 702.06 661.90 702.55 656.37 C 683.63 671.32 663.98 685.58 642.30 696.29 C 626.27 705.13 609.14 711.76 591.90 717.78 C 565.73 726.09 538.56 731.70 511.19 733.22 C 506.86 734.36 502.38 733.58 497.99 734.03 C 488.02 734.54 478.05 733.94 468.09 733.80 C 462.80 732.21 457.19 733.57 451.91 732.00 C 440.07 731.24 428.39 728.95 416.76 726.52 C 379.74 718.59 344.23 703.96 312.09 683.96 C 298.55 675.83 286.06 666.09 273.61 656.40 C 273.76 659.36 273.82 662.37 274.72 665.23 C 275.00 668.89 274.57 672.62 275.72 676.19 C 275.78 679.72 276.04 683.23 277.11 686.63 C 224.96 697.31 174.17 713.50 123.36 729.19 C 113.45 731.97 103.44 734.47 93.73 737.92 C 108.97 711.39 122.07 683.58 137.21 657.04 C 135.38 655.27 132.87 654.56 130.71 653.31 C 122.28 648.86 113.62 644.87 104.89 641.04 C 101.78 640.08 99.09 638.18 96.22 636.70 C 89.19 633.38 82.34 629.57 75.78 625.41 C 98.83 616.97 121.78 608.17 145.35 601.31 C 160.55 596.20 176.20 592.67 191.75 588.84 C 195.11 588.09 198.44 587.04 201.91 587.00 C 201.92 582.04 202.01 577.09 201.89 572.14 C 197.78 565.14 193.87 558.00 190.25 550.73 C 185.84 543.15 183.02 534.82 179.15 526.97 C 169.54 502.44 162.04 476.96 158.29 450.85 C 151.15 402.45 154.19 352.31 168.40 305.37 C 182.22 258.21 206.98 214.38 239.87 177.92 C 266.85 147.91 299.24 122.76 335.08 104.22 C 371.97 85.14 412.49 72.97 453.85 68.91 M 459.19 85.06 C 455.66 86.13 451.92 85.56 448.35 86.38 C 431.15 88.88 413.96 91.99 397.34 97.20 C 382.10 101.49 367.44 107.58 352.99 113.99 C 349.15 116.28 345.08 118.11 341.02 119.95 C 331.87 125.46 322.17 130.12 313.53 136.46 C 301.77 144.15 290.43 152.56 279.95 161.90 C 275.32 165.20 271.87 169.84 267.53 173.47 C 264.69 175.27 262.37 177.75 260.52 180.53 C 256.93 184.92 252.18 188.27 248.90 192.93 C 216.05 230.86 192.15 276.57 180.38 325.41 C 178.57 331.68 177.39 338.11 176.44 344.57 C 173.10 361.17 172.04 378.13 171.18 395.00 C 171.11 414.42 172.52 433.91 175.77 453.07 C 180.07 480.87 188.91 507.85 200.36 533.49 C 200.77 533.68 201.57 534.06 201.97 534.25 C 202.14 532.74 202.25 531.24 202.37 529.74 C 205.05 529.30 207.72 528.75 210.38 528.18 C 208.79 523.49 206.61 519.04 204.54 514.56 C 201.95 506.59 198.63 498.89 196.27 490.85 C 191.47 473.84 186.99 456.60 185.23 439.00 C 185.59 435.92 184.03 433.09 184.21 430.04 C 184.52 425.30 182.78 420.75 183.21 416.01 C 182.58 404.09 182.79 392.14 183.35 380.22 C 185.05 375.24 183.33 369.87 185.14 364.93 C 185.13 358.63 186.90 352.52 187.47 346.27 C 190.97 329.57 194.87 312.87 200.94 296.89 C 213.97 260.22 234.50 226.35 260.37 197.37 C 265.75 192.69 269.48 186.53 274.91 181.94 C 280.13 178.60 283.53 173.15 288.65 169.68 C 306.85 153.61 327.34 140.25 348.74 128.82 C 355.38 125.89 361.85 122.58 368.46 119.59 C 375.70 116.84 382.92 114.05 390.15 111.27 C 403.03 107.66 415.77 103.40 428.97 101.07 C 441.58 98.86 454.25 96.84 467.07 96.22 C 477.98 94.86 489.02 95.84 500.00 95.51 C 526.67 96.94 553.38 100.89 578.84 109.25 C 588.75 111.66 597.95 116.20 607.56 119.52 C 610.99 121.08 614.35 122.82 617.81 124.33 C 637.57 133.18 655.87 144.98 673.20 157.87 C 681.58 164.78 690.28 171.31 697.71 179.28 C 702.06 182.55 706.12 186.28 709.25 190.77 C 722.59 203.98 733.89 219.04 744.32 234.63 C 755.41 252.28 765.61 270.63 772.58 290.34 C 776.28 299.35 779.53 308.56 781.87 318.03 C 785.04 329.03 787.75 340.21 789.31 351.56 C 792.71 373.50 794.41 395.81 792.78 418.00 C 791.91 432.35 789.98 446.57 787.57 460.74 C 783.63 477.15 779.80 493.70 773.27 509.32 C 771.34 515.83 767.98 521.78 765.69 528.16 C 768.28 528.73 770.91 529.18 773.57 529.46 C 773.97 531.04 774.15 532.66 774.27 534.30 C 774.63 534.13 775.34 533.79 775.69 533.62 C 777.35 530.18 778.69 526.60 780.17 523.08 C 783.14 515.04 786.97 507.31 789.09 498.97 C 792.27 489.19 795.18 479.31 797.37 469.26 C 800.96 450.74 804.28 432.02 804.28 413.09 C 805.90 406.50 804.54 399.66 805.07 392.94 C 803.74 386.51 804.43 379.88 803.61 373.37 C 800.76 340.37 792.72 307.82 779.81 277.32 C 772.08 258.37 761.84 240.54 750.59 223.47 C 742.80 211.46 733.60 200.46 724.39 189.57 C 721.21 185.78 716.89 183.03 714.31 178.74 C 712.10 175.55 708.44 173.93 705.92 171.07 C 702.69 167.59 699.31 164.24 695.56 161.32 C 649.23 121.12 591.05 94.63 530.12 86.78 C 525.46 85.54 520.59 86.16 515.96 84.88 C 511.28 84.42 506.45 85.52 501.94 83.82 C 492.65 83.76 483.35 83.76 474.06 83.82 C 469.28 85.66 464.10 84.16 459.19 85.06 M 415.01 113.00 C 367.95 124.74 324.12 148.59 288.27 181.19 C 281.82 187.44 275.55 193.88 269.17 200.20 C 227.34 245.83 200.12 304.82 193.28 366.37 C 192.43 370.54 192.96 374.87 191.98 379.04 C 191.25 393.32 191.19 407.66 192.00 421.93 C 193.02 426.38 192.38 431.01 193.44 435.46 C 196.84 466.84 205.74 497.67 219.21 526.22 C 257.17 518.78 295.39 512.94 333.83 508.88 C 337.63 507.90 341.66 508.70 345.41 507.46 C 349.09 506.58 352.97 507.69 356.64 506.73 C 360.80 505.39 365.29 506.96 369.42 505.49 C 374.01 504.44 378.88 505.95 383.41 504.48 C 389.56 503.59 395.89 504.37 402.02 503.20 C 413.01 503.02 423.96 502.04 434.96 502.08 C 444.92 500.86 455.00 502.31 464.97 501.16 C 476.65 501.27 488.36 500.69 500.01 501.61 C 509.00 501.70 518.02 501.27 526.99 502.14 C 533.02 501.71 538.97 502.96 545.00 502.70 C 555.33 503.00 565.58 504.09 575.92 504.22 C 580.76 505.72 585.82 504.87 590.77 505.27 C 595.76 507.14 601.21 505.18 606.25 506.76 C 609.88 507.79 613.78 506.50 617.39 507.68 C 620.96 508.73 624.77 507.71 628.36 508.71 C 671.41 513.06 714.19 519.00 756.84 526.52 C 762.85 513.43 768.31 500.02 772.20 486.12 C 779.82 462.13 783.17 437.07 784.69 412.04 C 784.55 400.17 785.18 388.28 783.74 376.47 C 781.43 345.99 774.16 315.88 762.44 287.64 C 752.21 261.94 737.64 238.14 720.69 216.33 C 710.63 203.19 698.58 191.77 686.79 180.19 C 654.11 150.84 614.96 128.55 572.74 116.18 C 521.71 100.98 466.61 99.84 415.01 113.00 M 430.06 510.79 C 420.01 510.88 410.01 511.76 399.97 511.93 C 394.14 513.03 388.16 512.26 382.32 513.23 C 377.49 514.47 372.36 512.97 367.59 514.52 C 363.58 515.44 359.36 514.24 355.37 515.29 C 351.81 516.45 347.96 515.19 344.40 516.30 C 306.74 520.43 268.97 525.25 231.71 532.67 C 224.65 534.01 217.50 534.91 210.58 536.92 C 210.71 575.05 210.73 613.20 210.57 651.33 C 261.15 638.47 312.78 629.98 364.63 624.69 C 368.52 623.49 372.70 624.77 376.61 623.68 C 380.56 622.44 384.78 623.67 388.80 622.88 C 394.73 621.09 401.10 623.21 407.02 621.24 C 412.66 621.12 418.29 620.84 423.92 620.76 C 429.54 619.46 435.35 620.68 441.02 619.82 C 449.00 619.49 457.00 619.81 464.99 619.69 C 472.61 618.88 480.37 618.79 488.00 619.68 C 496.32 619.85 504.66 619.45 512.98 619.86 C 518.37 620.60 523.87 619.53 529.22 620.71 C 536.80 621.32 544.56 620.39 552.03 622.04 C 556.75 622.48 561.62 621.45 566.24 622.84 C 570.89 623.78 575.76 622.36 580.37 623.72 C 584.30 624.76 588.49 623.45 592.39 624.68 C 596.25 625.73 600.34 624.78 604.19 625.87 C 650.82 630.65 697.11 637.64 743.12 646.81 C 750.64 648.08 758.03 650.32 765.60 651.14 C 765.47 613.16 765.39 575.16 765.65 537.19 C 763.65 536.18 761.41 536.07 759.26 535.69 C 712.90 527.33 666.26 520.93 619.41 516.51 C 615.27 515.03 610.77 516.51 606.59 515.34 C 602.88 514.29 598.99 515.27 595.23 514.71 C 590.39 513.09 585.23 514.15 580.26 513.63 C 574.72 512.22 568.95 512.89 563.31 512.45 C 558.91 511.64 554.41 511.91 549.98 511.46 C 543.28 511.67 536.66 510.54 529.97 510.85 C 521.36 509.71 512.65 510.96 504.04 509.90 C 487.68 509.83 471.31 509.87 454.95 509.88 C 446.69 511.02 438.31 509.68 430.06 510.79 M 191.73 597.63 C 159.15 605.01 127.44 615.66 96.04 626.95 C 105.33 632.30 115.44 636.20 125.05 641.00 C 133.46 644.43 141.04 649.46 149.05 653.65 C 135.95 676.49 123.93 699.98 111.75 723.34 C 125.42 719.98 138.70 715.24 152.21 711.26 C 160.55 709.27 168.46 705.78 176.83 703.88 C 206.60 694.67 236.74 686.56 267.21 680.01 C 267.31 674.97 265.65 670.12 266.05 665.05 C 264.15 659.59 266.28 653.63 264.01 648.28 C 261.55 648.82 258.88 648.59 256.70 650.09 C 256.39 653.81 257.86 657.30 257.82 660.98 C 257.49 665.41 259.55 669.57 258.82 674.03 C 246.10 677.07 233.26 679.65 220.76 683.54 C 189.27 692.05 158.63 703.49 127.19 712.14 C 137.79 692.23 147.06 671.61 158.16 651.94 C 157.43 649.85 154.42 649.47 152.71 648.18 C 146.14 644.09 138.76 641.70 132.11 637.75 C 125.83 634.95 119.91 631.48 114.02 627.94 C 117.34 626.11 120.99 625.02 124.44 623.48 C 134.07 620.23 143.39 616.13 153.15 613.24 C 168.99 607.47 185.27 602.99 201.73 599.40 C 201.93 598.19 202.10 596.98 202.25 595.78 C 198.64 595.63 195.22 596.92 191.73 597.63 M 774.30 595.62 C 774.31 596.51 774.33 598.29 774.34 599.18 C 792.42 603.03 810.14 608.42 827.60 614.46 C 839.52 618.36 851.02 623.42 862.91 627.41 C 859.08 631.07 853.83 632.54 849.55 635.55 C 845.21 638.01 840.60 639.97 836.02 641.94 C 829.99 644.92 824.26 648.50 818.12 651.27 C 819.73 653.28 820.63 655.74 822.09 657.86 C 824.69 661.82 825.78 666.58 828.57 670.44 C 835.86 684.25 842.23 698.56 849.89 712.17 C 831.33 707.13 813.15 700.87 794.81 695.12 C 770.78 687.51 746.55 680.34 721.91 674.91 C 720.66 674.53 719.17 674.61 718.20 673.66 C 718.09 670.03 717.91 666.32 718.87 662.80 C 719.66 658.94 718.91 654.91 720.15 651.13 C 717.17 650.80 714.32 649.84 711.34 649.61 C 711.52 655.79 710.50 661.87 709.92 667.99 C 710.19 672.08 708.38 675.92 708.85 680.03 C 749.31 688.47 788.92 700.53 828.40 712.66 C 840.41 716.10 852.18 720.39 864.32 723.37 C 862.25 719.22 860.15 715.09 858.01 710.98 C 847.63 692.00 838.41 672.41 826.91 654.05 C 843.77 643.29 862.55 636.12 880.34 627.11 C 858.10 619.07 835.74 611.23 812.93 604.95 C 800.14 601.54 787.36 597.82 774.30 595.62 M 155.12 617.12 C 144.74 620.96 134.02 623.99 124.03 628.79 C 137.04 636.46 151.84 641.00 164.00 650.09 C 161.30 656.16 157.45 661.65 154.77 667.73 C 148.17 680.08 142.30 692.81 135.81 705.21 C 171.48 694.13 206.78 681.67 243.18 673.10 C 246.82 671.78 250.85 671.77 254.33 670.01 C 253.66 663.57 252.69 657.14 252.45 650.67 C 235.51 653.60 218.90 658.20 202.17 662.11 C 201.73 649.08 202.01 636.03 201.93 623.00 C 202.02 616.56 201.69 610.11 202.21 603.69 C 186.28 607.31 170.58 611.87 155.12 617.12 M 774.15 603.63 C 774.44 623.11 774.21 642.60 774.28 662.08 C 757.55 658.34 740.68 655.16 723.90 651.66 C 724.11 657.93 723.17 664.11 722.50 670.32 C 732.47 672.71 742.35 675.45 752.35 677.71 C 766.42 681.82 780.53 685.88 794.45 690.47 C 799.98 691.66 805.01 694.43 810.57 695.49 C 820.74 698.84 830.94 702.06 841.20 705.12 C 836.94 698.01 833.71 690.40 829.96 683.02 C 825.96 676.46 823.62 669.06 819.53 662.54 C 817.38 658.37 814.77 654.41 812.89 650.11 L 813.24 649.45 C 821.34 644.16 830.07 639.90 838.86 635.93 C 843.20 633.07 848.46 631.91 852.48 628.55 C 849.27 626.84 845.83 625.69 842.42 624.51 C 820.17 616.04 797.41 608.81 774.15 603.63 M 434.83 628.76 C 431.24 629.05 427.63 628.61 424.04 628.98 C 417.48 630.07 410.77 629.38 404.18 630.09 C 399.30 631.51 394.16 630.27 389.21 631.10 C 385.02 632.62 380.50 631.32 376.21 632.11 C 371.87 633.70 367.11 632.02 362.78 633.73 C 359.40 633.94 355.98 633.67 352.70 634.68 C 342.39 635.71 332.12 637.09 321.87 638.58 C 318.71 638.69 315.65 639.41 312.59 640.13 C 336.71 657.24 362.87 671.87 391.07 681.06 C 409.26 687.66 428.30 691.86 447.40 694.70 C 450.91 695.50 454.61 694.77 458.06 696.05 C 463.80 695.67 469.29 697.48 475.02 697.14 C 485.66 697.45 496.32 697.29 506.96 697.04 C 511.60 695.46 516.61 696.89 521.23 695.26 C 522.48 695.14 523.75 695.10 525.02 695.14 C 570.90 689.43 615.53 672.84 653.80 646.79 C 656.05 644.91 659.65 644.08 660.43 640.92 C 657.81 640.78 655.12 641.12 652.59 640.32 C 636.60 638.06 620.49 636.20 604.42 634.50 C 600.59 633.16 596.43 634.52 592.61 633.31 C 588.97 632.22 585.09 633.39 581.42 632.52 C 577.16 631.10 572.60 632.42 568.27 631.58 C 562.28 629.97 555.96 631.56 549.96 629.97 C 544.41 629.70 538.85 629.65 533.30 629.47 C 527.91 628.32 522.38 629.27 516.95 628.54 C 509.65 628.14 502.30 628.95 495.04 627.87 C 482.68 627.82 470.33 627.82 457.98 627.87 C 450.31 629.13 442.52 627.87 434.83 628.76 M 285.63 644.17 C 297.67 654.10 310.30 663.35 323.74 671.31 C 337.80 680.21 352.98 687.08 368.10 693.97 C 379.77 698.09 391.26 702.91 403.35 705.72 C 420.97 710.80 439.15 714.06 457.35 715.72 C 462.50 716.72 467.81 716.10 472.97 717.07 C 481.64 717.25 490.33 717.05 499.01 717.16 C 537.50 715.67 575.86 707.52 611.38 692.41 C 625.53 685.89 639.83 679.54 652.91 670.99 C 663.43 664.75 673.47 657.68 683.06 650.09 C 684.91 648.73 687.03 647.57 688.25 645.56 C 683.45 644.63 678.40 644.62 673.81 642.90 C 662.10 652.12 649.44 660.00 636.65 667.60 C 621.39 675.48 605.94 683.20 589.59 688.61 C 567.30 696.68 543.88 701.74 520.39 704.32 C 515.87 705.64 511.05 704.07 506.53 705.41 C 503.75 706.16 500.83 705.75 498.00 705.86 C 489.06 705.96 480.12 706.00 471.19 705.73 C 465.85 703.93 460.12 705.77 454.78 704.12 C 399.02 698.39 345.08 676.18 300.85 641.89 C 295.68 641.50 290.73 643.59 285.63 644.17 Z" />
<path fill="#ffffff" opacity="1.00" d=" M 460.42 122.29 C 466.28 121.99 472.14 122.17 478.00 122.13 C 485.17 122.31 492.78 121.10 499.41 124.60 C 505.83 127.22 509.97 133.20 512.70 139.32 C 516.30 145.63 515.46 153.07 515.48 160.03 C 514.96 166.34 512.47 172.56 508.15 177.22 C 505.23 179.28 502.72 182.05 499.26 183.21 C 492.18 186.07 484.43 185.01 477.00 185.20 C 472.02 185.04 467.00 185.57 462.05 184.92 C 457.27 184.67 456.64 177.45 460.39 175.36 C 461.64 175.17 462.89 175.06 464.16 175.02 C 464.04 160.82 464.29 146.60 464.02 132.40 C 461.89 132.07 459.57 131.61 458.40 129.58 C 457.96 127.89 458.20 126.13 458.19 124.41 C 458.93 123.71 459.68 123.00 460.42 122.29 M 474.94 132.32 C 474.71 146.59 475.04 160.87 474.76 175.14 C 478.51 175.07 482.26 175.25 486.01 175.09 C 491.11 174.11 497.15 174.09 500.68 169.64 C 505.91 163.48 505.87 154.54 504.33 147.00 C 503.34 141.73 499.90 137.40 495.67 134.30 C 489.15 131.30 481.85 132.65 474.94 132.32 Z" />
<path fill="#ffffff" opacity="1.00" d=" M 563.63 133.55 C 565.17 132.43 567.06 132.55 568.79 133.15 C 584.30 138.74 599.47 145.28 615.07 150.63 C 613.97 154.46 612.42 158.14 610.97 161.85 C 609.65 164.82 609.11 168.33 606.46 170.49 C 603.86 171.54 601.02 170.73 599.10 168.79 C 598.69 164.67 599.82 160.81 601.46 157.08 C 593.77 153.80 585.84 151.02 578.05 147.94 C 576.09 152.82 573.95 157.65 572.61 162.76 C 575.40 163.77 578.22 164.72 580.89 166.02 C 582.20 163.71 583.57 160.98 586.37 160.24 C 588.48 159.53 590.21 161.17 591.89 162.17 C 592.86 169.45 588.50 175.66 586.43 182.34 C 585.33 185.84 580.37 186.45 577.85 184.23 C 575.35 182.14 576.60 178.49 577.53 175.91 C 574.70 174.61 571.74 173.66 568.83 172.56 C 566.36 177.30 565.00 182.52 562.64 187.32 C 571.37 190.59 580.07 193.93 588.80 197.20 C 590.48 193.54 590.66 188.09 595.19 186.79 C 597.21 186.13 599.96 187.21 600.78 189.30 C 601.96 197.17 596.41 203.74 594.75 211.14 C 581.06 205.23 566.97 200.34 553.15 194.77 C 549.55 193.18 544.83 192.65 542.79 188.85 C 542.09 186.13 543.33 183.80 545.34 182.05 C 547.91 182.00 550.46 182.36 552.89 183.25 C 554.48 180.46 555.48 177.41 556.50 174.38 C 560.39 164.30 564.56 154.32 568.11 144.11 C 566.00 143.18 563.93 142.15 562.07 140.79 C 562.39 138.39 561.17 135.13 563.63 133.55 Z" />
<path fill="#ffffff" opacity="1.00" d=" M 367.43 148.60 C 374.29 145.90 381.27 143.45 387.83 140.05 C 400.30 153.25 413.47 165.77 426.20 178.73 C 427.82 181.04 430.74 180.09 432.90 179.23 C 434.30 180.15 435.63 181.17 436.89 182.28 C 436.77 183.99 437.14 185.82 436.48 187.45 C 433.10 191.00 427.97 191.75 423.72 193.84 C 420.29 195.26 416.62 197.90 412.78 196.34 C 410.69 194.92 409.15 192.08 410.68 189.69 C 411.55 186.60 415.20 186.30 417.64 185.05 C 415.86 183.20 414.03 181.41 412.21 179.61 C 410.01 181.06 407.56 182.04 405.11 182.95 C 399.40 184.96 394.10 187.95 388.40 189.97 C 388.44 192.42 388.42 194.86 388.35 197.31 C 390.80 196.56 393.19 195.27 395.78 195.16 C 398.99 196.24 400.56 199.37 399.85 202.62 C 394.61 207.12 387.68 208.86 381.44 211.54 C 378.47 212.85 375.03 212.45 373.10 209.68 C 373.25 207.79 372.57 205.53 373.95 203.96 C 375.14 202.92 376.67 202.41 378.08 201.74 C 378.12 196.74 378.53 191.67 377.39 186.76 C 377.29 176.39 377.44 166.02 377.32 155.66 C 373.86 157.63 370.16 159.69 366.09 159.84 C 362.82 159.82 361.31 155.94 361.69 153.16 C 363.00 151.03 365.12 149.51 367.43 148.60 M 387.90 155.40 C 387.73 163.14 387.86 170.88 387.83 178.63 C 393.53 176.82 398.87 174.05 404.44 171.90 C 399.07 166.26 393.57 160.73 387.90 155.40 Z" />
<path fill="#ffffff" opacity="1.00" d=" M 657.40 183.16 C 659.13 183.17 660.86 183.14 662.60 183.13 C 665.74 186.80 670.05 189.17 673.19 192.83 C 678.51 198.82 685.31 203.53 689.56 210.43 C 690.54 213.25 691.38 216.15 691.87 219.10 C 691.96 226.62 687.46 234.81 679.82 236.79 C 675.46 236.84 671.03 237.22 666.72 236.41 C 668.26 243.59 666.36 250.92 665.44 258.08 C 666.98 259.81 668.61 261.70 668.96 264.08 C 668.50 267.40 664.74 269.85 661.54 268.57 C 659.09 266.67 656.42 264.96 654.42 262.55 C 653.60 261.41 654.70 259.99 654.76 258.76 C 656.36 250.35 656.91 241.71 656.04 233.19 C 655.48 227.92 650.47 225.47 646.91 222.35 C 643.69 225.51 641.24 229.36 637.72 232.22 C 639.92 235.28 645.65 237.87 643.30 242.30 C 642.04 245.67 638.20 244.86 635.38 244.81 C 631.21 240.57 627.23 236.08 622.44 232.53 C 620.21 230.90 619.27 228.25 617.93 225.97 C 618.87 223.11 621.26 221.63 624.04 220.87 C 626.31 221.79 628.37 223.10 630.03 224.94 C 634.49 220.41 638.70 215.65 643.36 211.32 C 647.83 205.02 654.07 200.23 659.04 194.30 C 657.75 193.05 656.49 191.78 655.17 190.58 C 655.16 188.85 655.16 187.13 655.14 185.41 C 655.90 184.67 656.65 183.92 657.40 183.16 M 654.51 214.90 C 660.37 220.30 666.58 226.56 674.98 227.19 C 677.82 226.57 680.30 224.76 681.13 221.89 C 681.76 217.88 679.75 213.83 676.84 211.17 C 673.53 207.93 670.30 204.61 666.97 201.39 C 662.57 205.67 658.32 210.09 654.51 214.90 Z" />
<path fill="#ffffff" opacity="1.00" d=" M 297.44 198.40 C 300.86 195.60 304.85 193.32 309.13 192.18 C 312.96 192.28 317.18 191.33 320.64 193.45 C 323.93 194.93 326.25 197.81 328.67 200.37 C 329.76 203.86 331.52 207.69 330.33 211.36 C 329.86 213.65 329.52 215.97 328.77 218.20 C 332.44 218.18 336.13 217.93 339.79 218.25 C 343.49 219.11 347.20 219.95 350.96 220.50 C 352.72 217.74 355.80 218.02 358.68 218.10 C 360.26 219.57 362.13 221.44 361.29 223.82 C 359.65 227.10 356.88 230.17 353.74 231.90 C 344.57 230.17 335.44 227.52 326.04 227.87 C 320.68 228.47 317.25 233.02 313.84 236.71 C 317.36 239.53 319.45 243.68 322.94 246.54 C 324.94 244.59 327.02 242.72 329.39 241.22 C 332.26 240.69 336.57 242.44 335.89 245.99 C 336.36 249.01 333.46 250.76 331.70 252.69 C 327.55 256.94 323.14 260.89 318.51 264.60 C 316.77 265.08 314.94 264.79 313.17 264.88 C 312.16 263.12 310.74 261.32 311.10 259.16 C 311.66 256.90 313.40 255.17 315.17 253.76 C 309.78 246.57 302.68 240.90 297.07 233.88 C 293.81 230.01 289.92 226.73 286.71 222.82 C 284.87 224.32 283.13 226.18 280.83 226.92 C 277.06 227.19 274.17 223.00 275.30 219.50 C 282.13 211.87 290.06 205.44 297.44 198.40 M 302.19 208.18 C 299.63 210.78 296.65 212.96 294.44 215.89 C 298.50 219.99 302.45 224.16 305.98 228.72 C 312.37 224.07 318.72 218.06 320.18 209.93 C 320.41 206.47 317.95 202.22 314.00 202.82 C 309.32 202.14 305.31 205.07 302.19 208.18 Z" />
<path fill="#ffffff" opacity="1.00" d=" M 509.88 273.94 C 514.69 270.37 520.08 267.29 526.08 266.33 C 531.74 265.97 537.65 265.62 542.94 268.04 C 552.20 272.08 560.32 278.27 569.31 282.81 C 582.61 290.89 596.20 298.47 609.58 306.43 C 620.43 312.91 631.67 318.78 642.07 325.99 C 647.37 330.78 651.00 337.40 652.55 344.38 C 655.14 357.38 647.74 369.35 639.75 378.91 C 636.43 376.69 632.75 375.00 629.73 372.36 C 625.63 377.92 623.21 384.60 618.69 389.84 C 616.85 389.85 615.01 389.92 613.19 389.79 C 608.90 387.98 609.35 381.96 611.94 378.87 C 614.81 375.10 616.35 370.53 619.27 366.80 C 617.17 365.64 615.11 364.43 613.12 363.10 C 610.34 368.26 607.22 373.21 604.29 378.27 C 603.13 379.52 601.85 381.20 599.93 380.87 C 595.36 381.54 591.34 375.08 594.51 371.46 C 597.48 366.77 600.28 361.97 602.67 356.95 C 600.76 355.89 598.84 354.87 596.97 353.77 C 594.73 357.92 591.82 361.67 589.91 365.99 C 588.59 368.97 585.96 370.94 582.96 372.04 C 579.37 370.89 575.65 366.83 577.96 363.01 C 580.81 357.88 583.65 352.73 586.88 347.83 C 584.62 347.09 582.79 344.14 580.26 345.04 C 577.49 349.98 574.65 354.87 571.65 359.68 C 570.01 362.17 566.96 361.96 564.34 361.88 C 562.67 359.80 560.09 357.33 561.35 354.41 C 564.11 349.06 567.17 343.85 570.45 338.82 C 568.84 336.88 566.49 335.97 564.29 334.93 C 561.66 340.85 557.66 346.06 554.57 351.74 C 553.34 352.16 552.14 352.61 550.95 353.07 C 548.71 352.14 546.29 351.10 545.19 348.78 C 544.91 346.54 545.05 344.21 546.39 342.31 C 549.10 337.79 551.86 333.30 554.61 328.81 C 552.77 327.85 550.89 326.99 549.13 325.90 C 546.41 331.15 543.47 336.29 540.23 341.23 C 538.52 342.74 535.98 344.91 533.65 343.37 C 531.20 342.31 529.51 339.84 529.53 337.19 C 531.99 331.14 536.07 325.88 538.92 320.01 C 537.03 319.06 535.31 317.83 533.75 316.42 C 530.64 321.47 527.97 326.80 524.76 331.80 C 523.71 333.50 521.69 334.04 520.06 334.97 C 518.42 333.94 515.95 333.93 515.08 331.99 C 513.73 329.96 513.62 326.97 515.03 324.96 C 518.15 320.39 520.20 315.20 523.56 310.78 C 521.58 309.72 519.57 308.72 517.67 307.52 C 514.94 313.04 511.43 318.11 508.52 323.53 C 507.44 325.46 504.90 324.75 503.11 324.85 C 500.23 325.05 499.04 321.97 497.85 319.94 C 500.16 313.54 503.97 307.88 507.25 301.99 C 504.94 298.96 500.43 297.97 497.25 295.77 C 499.89 287.72 504.04 280.12 509.88 273.94 M 517.30 279.26 C 512.73 282.23 510.56 287.37 507.83 291.86 C 540.35 310.76 572.79 329.79 605.33 348.67 C 616.00 355.21 627.12 361.03 637.60 367.87 C 639.92 363.64 642.73 359.58 644.04 354.88 C 644.37 349.59 644.63 344.00 641.69 339.32 C 637.68 330.54 627.84 327.58 620.38 322.58 C 594.43 307.56 568.62 292.31 542.65 277.30 C 539.36 275.39 535.52 274.92 531.87 274.14 C 526.76 274.89 521.35 275.78 517.30 279.26 Z" />
<path fill="#ffffff" opacity="1.00" d=" M 234.01 284.86 C 237.55 276.80 245.71 270.03 254.93 271.14 C 260.88 272.45 267.62 276.50 268.22 283.21 C 271.05 281.55 273.95 279.94 277.18 279.19 C 283.62 278.46 290.92 280.70 294.46 286.47 C 298.13 292.49 297.15 300.15 294.28 306.30 C 289.13 316.82 284.43 327.55 279.13 337.99 C 276.90 342.69 270.52 340.21 269.03 336.16 C 269.99 334.11 270.72 331.95 271.49 329.82 C 267.20 327.05 262.23 325.69 257.84 323.12 C 249.60 319.46 241.62 315.26 233.28 311.86 C 231.94 314.22 230.96 317.62 227.76 317.82 C 225.56 318.32 223.63 317.26 222.11 315.77 C 222.30 313.17 221.55 310.31 223.09 307.99 C 227.04 300.42 230.31 292.54 234.01 284.86 M 249.26 281.82 C 243.38 287.27 241.52 295.29 237.78 302.08 C 242.27 304.82 247.35 306.35 251.86 309.06 C 254.66 303.85 257.23 298.49 259.08 292.87 C 259.69 288.86 258.86 283.90 254.98 281.79 C 253.07 281.74 251.17 281.80 249.26 281.82 M 275.28 291.27 C 272.55 293.55 269.74 296.00 268.25 299.31 C 266.12 304.00 264.02 308.72 261.54 313.24 C 266.11 316.04 271.23 317.68 275.97 320.13 C 277.38 317.69 278.58 315.14 279.64 312.54 C 282.31 307.24 285.33 301.88 286.28 295.96 C 286.82 293.50 285.47 291.48 283.79 289.85 C 280.89 289.85 277.77 289.42 275.28 291.27 Z" />
<path fill="#ffffff" opacity="1.00" d=" M 708.38 287.32 C 709.69 279.79 716.53 273.79 724.09 273.12 C 730.97 273.17 737.75 276.49 741.88 282.03 C 745.62 287.58 748.30 294.16 747.89 300.96 C 747.45 303.17 750.36 303.32 751.00 305.00 C 751.96 306.37 751.78 308.07 751.90 309.65 C 747.95 313.25 742.84 315.11 737.90 316.89 C 736.04 317.75 734.11 317.16 732.24 316.77 C 731.56 314.92 730.20 313.13 730.73 311.07 C 731.15 308.03 735.14 307.79 736.13 305.08 C 738.91 299.00 736.72 291.44 731.91 287.04 C 729.66 284.39 725.66 282.94 722.37 284.24 C 718.73 286.42 718.34 291.14 719.07 294.92 C 720.84 302.46 723.11 310.07 722.53 317.91 C 721.96 324.69 716.49 330.25 710.03 331.97 C 704.61 334.09 698.89 331.69 694.38 328.66 C 685.83 321.65 681.21 310.36 682.09 299.37 C 680.36 298.77 679.04 297.53 677.69 296.37 C 677.97 294.52 677.13 292.18 678.76 290.80 C 680.75 288.42 684.05 288.08 686.68 286.69 C 689.53 285.72 692.58 283.24 695.59 285.15 C 697.33 286.73 698.38 289.22 697.70 291.56 C 696.48 293.07 694.99 294.33 693.74 295.81 C 691.07 300.51 692.41 306.06 694.13 310.88 C 696.34 315.73 699.82 320.41 705.08 322.14 C 706.54 322.06 707.97 321.68 709.43 321.43 C 710.46 319.64 711.54 317.87 712.25 315.93 C 711.80 306.27 706.75 297.10 708.38 287.32 Z" />
<path fill="#ffffff" opacity="1.00" d=" M 462.66 328.64 C 463.69 326.62 465.49 325.18 467.06 323.60 C 471.09 323.26 473.11 326.96 475.59 329.46 C 477.86 331.97 480.47 334.14 482.93 336.47 C 484.99 333.44 488.87 333.69 491.81 335.23 C 493.52 338.14 492.60 341.17 490.91 343.83 C 493.99 345.94 496.69 348.57 499.92 350.46 C 501.64 348.71 503.02 345.81 505.90 346.13 C 508.99 345.89 511.42 348.91 510.92 351.90 C 511.46 354.15 507.68 355.40 509.39 357.53 C 511.97 359.94 515.17 361.55 518.12 363.46 C 520.30 361.78 521.83 358.28 525.00 358.68 C 527.11 358.33 528.60 359.99 529.96 361.32 C 530.37 364.57 528.95 367.34 526.79 369.66 C 530.36 371.50 533.93 373.38 537.23 375.70 C 538.90 374.38 541.05 372.30 543.31 373.65 C 546.43 374.58 547.25 378.12 546.78 380.98 C 557.80 386.18 568.73 391.98 580.73 394.58 C 590.20 395.11 599.55 396.98 608.95 398.17 C 619.68 399.57 630.26 402.16 640.55 405.51 C 646.03 408.09 652.01 410.23 656.23 414.78 C 659.44 417.83 661.82 421.84 662.71 426.20 C 662.51 431.56 665.33 436.96 662.65 442.11 C 664.62 442.17 666.63 441.97 668.59 442.39 C 670.27 443.69 671.06 445.88 670.85 447.98 C 670.67 451.83 671.18 455.75 670.58 459.57 C 669.34 461.14 667.54 462.05 665.65 462.54 C 644.91 466.08 624.11 469.66 603.23 471.20 C 599.60 472.32 595.78 471.58 592.08 472.00 C 586.21 473.55 580.05 472.69 574.08 473.54 C 564.45 474.40 554.77 474.39 545.11 474.38 C 538.09 475.28 531.01 474.88 523.99 474.34 C 514.62 474.59 505.27 474.03 495.93 473.65 C 489.94 472.65 483.76 473.49 477.84 472.08 C 474.40 471.54 470.84 472.34 467.46 471.45 C 463.67 470.17 459.56 471.53 455.81 470.08 C 441.85 469.00 427.92 466.70 414.06 464.38 C 414.36 468.30 415.38 474.68 410.03 475.45 C 377.00 475.40 343.97 475.50 310.93 475.40 C 308.66 475.65 306.90 474.08 305.31 472.72 C 305.44 464.50 305.33 456.28 305.34 448.06 C 305.24 446.72 305.96 445.54 306.42 444.34 C 309.57 442.98 312.99 443.01 316.35 443.15 C 313.69 435.34 312.03 427.22 311.14 419.05 C 311.15 412.68 311.12 406.32 311.15 399.95 C 312.10 384.50 316.80 369.52 322.03 355.01 C 323.03 352.08 326.64 353.37 328.97 353.11 C 350.44 356.36 372.19 359.16 394.00 358.70 C 406.46 359.01 419.08 357.81 431.04 354.15 C 439.18 351.86 446.68 347.57 452.82 341.78 C 456.21 337.48 459.93 333.40 462.66 328.64 M 461.59 344.52 C 456.02 351.55 448.20 356.23 440.29 360.18 C 420.79 367.53 399.60 368.06 379.03 367.24 C 367.65 366.41 356.22 365.79 344.97 363.92 C 341.58 364.13 338.41 362.69 335.03 362.82 C 332.96 362.87 331.03 362.07 329.04 361.64 C 324.33 372.91 321.72 384.96 319.87 396.98 C 319.93 402.32 319.50 407.65 319.73 412.99 C 319.58 423.36 322.01 433.68 325.75 443.33 C 353.49 442.86 381.25 443.26 408.99 443.12 C 413.33 443.81 417.71 444.40 422.02 445.32 C 424.10 445.88 425.45 443.97 427.07 443.06 C 446.40 429.24 469.47 421.02 493.01 418.30 C 496.75 418.50 500.23 416.80 503.97 417.11 C 520.28 417.18 536.59 417.04 552.90 417.20 C 558.51 418.58 564.49 418.57 570.10 417.19 C 574.74 417.44 579.89 416.71 583.36 413.34 C 585.92 411.26 585.61 407.67 586.46 404.78 C 583.58 403.54 580.36 403.68 577.40 402.73 C 567.23 399.87 557.31 396.01 548.05 390.90 C 545.49 389.65 542.98 388.07 540.12 387.69 C 536.41 390.34 533.70 394.22 530.26 397.23 C 528.36 398.78 526.81 401.55 524.01 401.28 C 521.95 401.44 520.53 399.83 519.06 398.69 C 519.22 396.56 518.84 394.11 520.67 392.56 C 524.11 388.98 527.88 385.73 531.11 381.94 C 527.37 379.98 523.97 377.47 520.37 375.30 C 517.95 378.53 514.73 381.03 512.00 383.98 C 510.47 385.69 508.12 387.45 505.74 386.26 C 502.74 385.58 501.94 382.05 502.07 379.39 C 505.32 376.32 508.48 373.14 511.62 369.95 C 508.49 367.31 504.87 365.32 501.91 362.49 C 498.33 366.49 494.24 369.99 490.60 373.92 C 488.40 374.00 486.25 373.68 484.24 372.80 C 483.04 370.45 482.44 367.51 484.44 365.39 C 487.65 362.67 490.57 359.66 493.65 356.80 C 490.66 354.25 487.34 352.12 484.76 349.12 C 481.65 352.86 477.86 355.95 474.61 359.56 C 472.87 361.68 469.30 362.97 467.07 360.83 C 464.46 359.70 465.28 356.63 465.10 354.38 C 469.07 350.66 472.84 346.75 476.67 342.90 C 474.37 340.04 471.92 337.26 469.07 334.93 C 466.31 337.76 464.58 341.73 461.59 344.52 M 594.35 404.66 C 594.85 410.84 593.02 417.95 587.37 421.29 C 583.80 424.03 579.27 425.07 574.92 425.79 C 561.61 425.96 548.30 425.78 534.99 425.89 C 529.32 426.38 523.86 423.78 518.18 425.10 C 512.00 426.85 505.49 425.15 499.22 426.13 C 497.51 426.60 495.76 426.88 494.00 426.88 C 473.95 429.23 454.30 435.64 437.12 446.33 C 437.25 447.85 439.02 447.38 440.04 447.57 C 448.69 448.23 457.25 449.75 465.90 450.31 C 469.77 451.45 473.80 450.99 477.77 451.27 C 484.03 453.32 490.80 450.94 497.06 453.06 C 519.68 453.19 542.32 453.22 564.94 453.05 C 571.87 450.88 579.31 453.41 586.23 451.28 C 590.56 450.76 595.03 451.73 599.27 450.33 C 615.15 449.12 630.98 447.09 646.75 444.86 C 649.47 444.00 652.33 444.07 655.16 444.17 C 655.18 436.80 655.70 428.85 651.77 422.27 C 650.15 419.84 647.47 418.42 645.06 416.91 C 629.24 409.17 611.49 407.39 594.35 404.66 M 610.16 458.08 C 605.68 459.06 601.00 458.25 596.57 459.48 C 591.68 460.31 586.55 459.05 581.78 460.74 C 575.17 461.35 568.38 460.00 561.92 461.83 C 541.31 461.88 520.69 461.89 500.09 461.82 C 492.88 459.53 485.11 462.20 477.92 459.93 C 473.55 459.55 469.09 460.27 464.81 459.11 C 450.51 457.91 436.22 456.16 422.05 453.89 C 416.02 453.24 410.10 451.49 404.00 451.83 C 373.93 451.82 343.87 451.90 313.80 451.79 C 313.95 456.77 313.77 461.75 313.92 466.73 C 344.39 466.74 374.87 466.54 405.34 466.83 C 406.17 463.34 404.02 458.82 407.26 456.25 C 409.41 454.07 412.66 455.60 415.24 455.91 C 428.68 458.00 442.09 460.39 455.59 461.47 C 459.35 462.81 463.46 461.47 467.21 462.88 C 471.47 463.52 475.86 462.82 480.06 464.01 C 488.42 464.35 496.71 465.09 505.05 465.55 C 522.00 465.76 539.01 466.87 555.95 465.61 C 562.31 465.93 568.63 465.10 574.98 465.05 C 581.03 463.94 587.27 464.81 593.27 463.41 C 597.25 463.08 601.32 463.47 605.18 462.25 C 609.87 462.57 614.35 461.14 619.01 461.11 C 633.41 459.15 647.93 457.36 662.15 454.14 C 662.16 453.36 662.18 451.81 662.19 451.03 C 645.01 453.91 627.57 456.35 610.16 458.08 Z" />
<path fill="#ffffff" opacity="1.00" d=" M 236.65 379.63 C 238.09 375.67 238.64 371.39 240.70 367.67 C 242.98 376.34 246.37 384.68 249.03 393.21 C 257.79 393.32 266.46 392.03 275.24 392.42 C 273.37 394.89 270.40 396.10 268.12 398.11 C 263.25 401.33 258.86 405.21 253.86 408.21 C 256.60 416.79 259.13 425.43 262.15 433.91 C 255.11 428.44 247.60 423.63 240.71 417.97 C 233.39 423.27 225.95 428.42 218.86 434.03 C 221.88 425.50 224.39 416.80 227.28 408.24 C 222.27 405.18 217.87 401.25 212.91 398.10 C 210.64 396.07 207.83 394.70 205.78 392.42 C 214.55 392.01 223.20 393.32 231.95 393.20 C 233.55 388.69 235.08 384.15 236.65 379.63 Z" />
<path fill="#ffffff" opacity="1.00" d=" M 735.30 367.61 C 736.90 370.68 737.80 374.03 738.70 377.35 C 740.44 382.65 742.32 387.90 744.14 393.17 C 752.90 393.35 761.57 392.04 770.35 392.42 C 765.65 396.78 760.00 399.96 755.03 403.99 C 753.08 405.55 751.00 406.93 748.83 408.15 C 751.70 416.70 754.13 425.39 757.14 433.90 C 749.97 428.48 742.73 423.15 735.37 418.00 C 728.49 423.70 720.85 428.40 713.86 433.97 C 716.84 425.46 719.53 416.86 722.24 408.27 C 718.65 406.09 715.41 403.41 712.07 400.89 C 708.11 398.33 704.29 395.55 700.79 392.40 C 709.58 392.05 718.27 393.29 727.05 393.24 C 729.82 384.71 733.09 376.32 735.30 367.61 Z" />
<path fill="#ffffff" opacity="1.00" d=" M 455.04 516.16 C 457.39 516.16 459.56 514.91 461.94 515.11 C 477.30 515.15 492.65 515.09 508.00 515.14 C 510.38 515.07 512.56 516.35 514.95 516.17 C 523.65 516.14 532.35 516.11 541.05 516.16 C 544.07 516.03 546.91 517.46 549.96 517.14 C 555.98 517.42 562.11 516.74 568.04 518.02 C 586.64 518.82 605.17 520.65 623.71 522.29 C 627.76 523.78 632.15 522.53 636.21 523.89 C 639.23 524.52 642.42 523.64 645.39 524.68 C 683.66 529.00 721.87 535.10 759.77 542.32 C 759.56 575.20 759.62 608.10 759.73 640.98 C 725.99 633.87 691.78 629.08 657.67 624.21 C 654.42 623.67 651.07 624.05 647.94 622.85 C 643.54 623.35 639.39 621.62 635.02 621.74 C 617.85 619.60 600.55 617.95 583.27 616.69 C 577.26 615.07 570.88 616.81 564.94 614.94 C 559.27 614.42 553.46 615.63 547.92 614.02 C 541.05 613.48 534.12 614.24 527.25 613.68 C 523.93 612.58 520.43 612.84 517.00 612.85 C 489.67 612.67 462.33 612.72 435.00 612.85 C 431.89 612.77 428.74 612.71 425.75 613.68 C 418.15 614.40 410.36 612.85 402.91 614.83 C 397.86 615.14 392.66 614.15 387.74 615.62 C 383.40 616.37 378.85 615.11 374.60 616.53 C 355.36 618.04 336.06 620.23 316.96 622.83 C 294.16 625.37 271.57 630.01 248.91 633.81 C 238.11 636.14 227.26 638.37 216.56 641.10 C 216.50 608.14 216.56 575.17 216.53 542.21 C 233.37 539.45 250.07 535.47 266.99 533.10 C 289.54 529.70 312.14 525.85 334.79 523.90 C 338.80 522.37 343.22 523.89 347.24 522.32 C 365.45 520.75 383.68 518.81 401.96 518.02 C 410.24 516.29 418.88 518.27 427.09 516.18 C 436.40 516.07 445.72 516.17 455.04 516.16 M 425.04 521.01 C 417.07 522.42 408.81 520.94 400.88 522.71 C 396.66 522.95 392.39 522.51 388.21 523.16 C 383.98 524.52 379.49 523.35 375.18 524.03 C 370.20 525.69 364.82 524.02 359.83 525.77 C 354.47 525.54 349.29 526.97 343.96 527.15 C 302.68 531.65 261.64 537.78 220.90 546.01 C 220.82 575.75 220.91 605.49 220.86 635.23 C 257.92 627.23 295.32 620.61 332.98 616.23 C 337.00 616.05 340.86 614.76 344.93 615.04 C 349.56 613.36 354.58 614.90 359.23 613.29 C 362.10 612.91 365.03 613.40 367.90 612.94 C 372.89 611.52 378.17 612.47 383.21 611.30 C 397.81 610.46 412.37 609.29 426.99 609.08 C 434.24 607.75 441.66 608.95 448.97 608.17 C 467.65 608.11 486.34 608.09 505.03 608.18 C 512.33 608.92 519.72 607.76 526.97 609.09 C 546.93 609.40 566.82 611.06 586.74 612.34 C 590.91 613.68 595.36 612.69 599.59 613.47 C 603.40 614.87 607.54 613.52 611.39 614.65 C 614.66 615.61 618.15 614.62 621.43 615.59 C 661.54 620.03 701.53 625.47 741.25 632.85 C 745.92 633.58 750.63 634.20 755.16 635.60 C 755.11 605.74 755.15 575.88 755.14 546.03 C 710.55 537.33 665.63 531.01 620.46 526.49 C 616.31 525.37 611.89 526.47 607.80 525.10 C 604.38 524.39 600.83 525.33 597.44 524.48 C 592.35 522.96 586.89 524.73 581.81 523.10 C 576.22 522.32 570.44 523.53 564.95 521.94 C 561.29 521.79 557.63 521.82 553.98 521.61 C 547.93 521.90 542.02 520.37 535.96 520.83 C 528.01 519.92 519.97 521.05 512.04 519.87 C 494.36 519.84 476.68 519.90 458.99 519.84 C 447.71 520.77 436.35 520.45 425.04 521.01 Z" />
<path fill="#ffffff" opacity="1.00" d=" M 552.00 537.10 C 555.54 537.12 559.10 537.15 562.65 537.38 C 557.76 546.23 554.47 555.81 549.77 564.75 C 547.84 569.88 544.16 574.67 544.77 580.43 C 551.52 578.65 555.36 572.40 558.91 566.92 C 559.90 567.71 560.92 568.49 561.85 569.38 C 562.29 570.64 561.32 571.70 560.66 572.65 C 556.86 578.07 552.16 583.36 545.84 585.77 C 542.67 585.83 539.17 586.48 536.40 584.56 C 535.11 583.34 534.43 581.64 533.59 580.13 C 531.66 581.66 529.78 583.28 527.62 584.47 C 525.20 585.00 522.69 584.95 520.23 584.81 C 518.07 583.56 516.59 581.51 515.17 579.53 C 512.69 581.69 510.03 583.86 506.81 584.77 C 503.31 584.93 498.65 585.66 496.90 581.77 C 494.33 574.86 498.63 568.13 500.86 561.78 C 501.35 560.20 503.31 557.80 500.89 556.86 C 498.68 556.41 496.84 558.09 494.93 558.91 C 491.64 560.32 491.29 564.21 489.99 567.10 C 487.48 572.65 485.31 578.34 482.80 583.89 C 479.22 583.83 475.64 583.74 472.07 584.02 C 472.33 583.43 472.84 582.26 473.09 581.67 C 469.93 582.92 466.82 585.11 463.26 584.59 C 460.23 584.18 457.37 582.43 456.16 579.55 C 453.08 582.12 449.45 584.58 445.32 584.77 C 441.23 584.91 437.70 581.05 438.12 577.02 C 437.43 569.30 440.54 561.91 444.27 555.34 C 446.85 550.08 453.13 546.67 458.93 547.93 C 461.49 548.35 463.37 550.61 464.26 552.94 C 468.53 551.22 473.17 550.37 477.11 547.87 C 475.89 550.76 474.54 553.62 473.70 556.66 C 471.41 563.82 466.79 570.58 466.92 578.29 C 473.39 577.69 476.09 571.07 479.49 566.49 C 481.75 560.65 484.46 554.99 486.49 549.05 C 490.07 549.49 493.19 552.26 496.80 552.06 C 500.61 549.44 505.53 547.14 510.17 548.83 C 512.85 549.20 514.33 552.32 513.81 554.81 C 513.07 560.06 510.01 564.55 508.47 569.57 C 506.95 572.50 505.72 575.80 506.83 579.11 C 509.27 577.88 512.12 577.08 513.81 574.77 C 517.74 569.76 518.15 562.91 522.04 557.86 C 523.93 555.49 525.32 552.57 528.21 551.22 C 531.70 548.40 536.88 547.90 540.71 550.34 C 541.95 551.55 542.79 553.10 543.87 554.46 C 546.30 548.55 548.78 542.64 552.00 537.10 M 447.54 573.92 C 449.16 578.21 454.25 575.79 456.23 573.12 C 458.69 568.98 459.98 564.31 462.08 560.00 C 461.59 557.46 459.83 555.46 457.04 556.44 C 451.03 560.17 449.38 567.59 447.54 573.92 M 526.08 573.22 C 525.31 574.73 526.54 576.04 527.18 577.33 C 534.92 576.86 537.29 568.57 539.94 562.68 C 541.73 559.72 538.16 556.02 535.19 557.96 C 530.12 561.40 527.72 567.53 526.08 573.22 Z" />
<path fill="#ffffff" opacity="1.00" d=" M 288.21 548.11 C 291.85 547.74 295.50 547.33 299.08 546.55 C 295.36 558.70 292.88 571.18 289.52 583.43 C 288.74 586.02 288.82 588.73 288.81 591.41 C 293.10 591.76 295.29 587.20 297.23 584.11 C 301.70 577.48 301.69 568.45 307.83 562.87 C 313.40 556.54 325.55 554.52 330.70 562.42 C 331.29 567.42 330.78 573.25 326.80 576.83 C 322.64 581.11 316.21 581.16 310.69 582.00 C 310.29 584.48 311.50 586.52 313.28 588.13 C 322.37 589.56 330.98 583.14 334.48 575.10 C 335.11 569.91 337.22 565.11 339.38 560.42 C 342.37 556.92 345.97 552.90 351.02 553.20 C 354.47 552.93 357.30 555.37 358.92 558.21 C 362.75 555.63 367.14 554.15 371.16 551.94 C 369.45 555.89 368.39 560.07 367.09 564.17 C 365.70 570.02 363.03 575.72 362.89 581.79 C 364.06 583.66 365.91 582.05 367.17 581.18 C 369.87 578.43 372.55 575.46 373.70 571.69 C 375.97 564.70 378.44 557.78 380.96 550.88 C 384.00 552.04 387.18 552.79 390.14 554.16 C 394.64 550.53 401.02 547.30 406.66 550.41 C 409.22 554.91 407.24 560.05 405.62 564.50 C 404.30 569.45 401.44 574.08 401.72 579.37 C 403.95 579.22 406.39 578.72 407.79 576.79 C 410.68 573.24 413.06 569.29 415.25 565.28 C 416.47 566.22 417.67 567.20 418.89 568.18 C 415.78 574.25 411.80 580.12 406.13 584.07 C 402.88 586.16 398.96 585.90 395.27 585.81 C 394.05 584.32 392.30 582.93 392.20 580.87 C 392.07 577.27 391.78 573.55 393.26 570.17 C 394.28 566.01 396.93 562.11 396.34 557.69 C 391.73 557.96 387.07 561.35 386.01 565.96 C 383.83 573.00 381.36 579.95 378.80 586.86 C 374.30 587.23 369.34 585.75 365.28 588.25 C 362.49 589.49 359.29 588.75 356.33 588.83 C 355.02 587.47 353.69 586.14 352.36 584.82 C 349.57 588.55 345.05 591.58 340.20 590.84 C 336.91 590.46 334.93 587.42 334.09 584.48 C 329.47 589.42 324.00 594.14 316.94 594.76 C 313.39 594.73 309.48 595.60 306.25 593.76 C 303.26 592.71 302.27 589.44 300.33 587.25 C 297.41 592.94 292.16 599.17 285.00 597.95 C 282.24 598.48 280.56 596.15 279.18 594.18 C 275.43 598.73 270.22 601.82 264.61 603.51 C 258.89 604.41 251.61 604.45 248.38 598.68 C 244.39 587.91 248.26 574.36 258.01 568.03 C 261.89 566.47 266.41 564.77 270.53 566.45 C 273.39 567.35 275.89 569.92 275.86 573.04 C 275.81 576.30 276.39 579.78 274.82 582.80 C 271.50 583.36 268.15 583.67 264.80 583.95 C 265.79 580.82 266.48 577.60 266.21 574.30 C 262.78 574.24 260.37 577.30 259.01 580.10 C 257.50 585.14 255.30 590.88 258.14 595.86 C 262.83 598.65 268.51 596.43 272.53 593.48 C 275.63 590.70 278.92 587.45 279.43 583.10 C 282.26 571.41 285.51 559.83 288.21 548.11 M 351.25 561.90 C 346.62 566.40 344.65 572.72 343.80 578.97 C 344.14 580.12 344.58 581.26 345.11 582.36 C 349.40 582.42 352.83 578.77 353.73 574.80 C 354.78 570.59 358.03 565.77 354.87 561.71 C 353.66 561.77 352.45 561.83 351.25 561.90 M 311.69 575.89 C 314.71 576.21 318.03 575.38 319.77 572.71 C 320.64 570.45 321.32 568.11 321.27 565.67 C 315.49 565.21 312.87 571.24 311.69 575.89 Z" />
<path fill="#ffffff" opacity="1.00" d=" M 589.98 566.95 C 593.02 558.91 601.03 552.63 609.70 552.51 C 613.19 553.04 617.01 553.66 619.20 556.80 C 621.93 561.26 619.77 566.51 617.92 570.92 C 614.16 570.78 610.39 570.85 606.63 570.79 C 608.74 567.83 610.84 564.52 610.30 560.69 C 604.01 560.69 601.16 567.11 598.94 571.98 C 597.28 575.14 596.49 580.11 600.33 582.02 C 603.89 583.38 607.95 582.97 611.44 581.56 C 617.12 579.91 620.88 574.89 624.66 570.66 C 627.32 564.21 632.31 558.21 639.18 556.19 C 643.86 555.06 648.14 558.22 650.01 562.35 C 654.37 561.21 658.80 560.29 663.08 558.86 C 658.66 567.29 653.55 575.43 650.14 584.33 C 649.22 585.72 650.26 586.93 651.06 588.07 C 653.44 586.84 656.07 585.91 657.86 583.81 C 659.62 581.80 662.34 580.19 662.54 577.27 C 662.55 576.01 663.46 575.10 664.16 574.16 C 665.98 571.87 667.22 569.21 669.04 566.92 C 665.45 562.05 669.60 555.88 674.98 555.07 C 676.37 555.91 677.58 557.03 678.82 558.09 C 677.90 559.68 677.02 561.28 676.20 562.92 C 679.73 567.06 686.63 570.57 685.30 576.92 C 683.16 581.77 680.03 586.17 678.49 591.29 C 679.69 591.81 681.36 592.84 682.54 591.66 C 686.96 588.35 689.60 583.40 693.47 579.55 C 696.54 575.04 699.81 570.25 705.02 568.03 C 711.15 564.83 719.47 565.33 724.17 570.81 C 727.68 575.11 724.38 580.71 721.71 584.55 C 716.31 590.35 707.74 589.16 700.78 587.69 C 700.86 589.34 700.72 591.05 701.11 592.69 C 704.33 596.71 710.48 596.93 714.94 594.99 C 720.40 593.76 724.32 589.58 728.01 585.68 C 729.09 586.61 731.01 587.11 730.91 588.87 C 726.23 595.35 718.99 600.22 711.08 601.65 C 704.67 602.45 697.04 601.78 692.55 596.57 C 690.68 594.70 691.22 591.97 690.97 589.60 C 687.92 592.76 684.63 595.76 680.63 597.67 C 676.58 598.30 670.84 598.32 669.10 593.81 C 667.05 586.67 672.73 580.97 675.19 574.82 C 676.44 572.50 673.60 571.08 672.29 569.64 C 670.85 572.81 668.03 575.36 667.42 578.87 C 664.18 584.88 658.94 589.79 652.75 592.73 C 648.91 594.15 643.91 594.39 640.85 591.24 C 639.55 590.02 639.13 588.24 638.50 586.66 C 635.84 590.70 630.18 592.76 625.61 591.40 C 621.45 590.01 620.71 585.39 621.12 581.58 C 616.97 585.58 611.51 587.75 605.95 588.86 C 600.02 589.18 591.99 589.25 588.92 583.10 C 585.62 578.05 588.07 572.02 589.98 566.95 M 631.30 580.98 C 630.29 583.62 633.65 585.28 635.66 583.83 C 641.39 581.69 643.33 575.52 645.62 570.45 C 646.42 569.12 646.29 567.56 646.37 566.08 C 645.23 565.55 644.10 565.05 642.96 564.58 C 636.51 567.55 632.88 574.34 631.30 580.98 M 704.14 582.36 C 706.47 582.73 709.06 583.49 711.28 582.28 C 713.86 580.51 715.64 577.75 715.49 574.52 C 710.46 573.74 706.11 578.18 704.14 582.36 Z" />
<path fill="#ffffff" opacity="1.00" d=" M 500.97 657.97 C 501.42 654.41 504.44 651.32 508.06 651.14 C 512.04 650.66 516.22 654.45 515.52 658.56 C 513.12 663.24 507.92 665.38 504.40 669.06 C 507.96 669.18 511.68 669.60 515.02 668.06 C 515.33 669.28 515.58 670.52 515.83 671.77 C 510.93 671.96 506.02 671.74 501.12 671.92 C 501.13 670.69 501.13 669.47 501.13 668.25 C 505.44 665.42 509.21 661.92 512.67 658.11 C 512.44 657.36 512.00 655.86 511.78 655.12 C 509.72 654.02 507.51 654.30 505.38 654.96 C 505.10 657.37 503.18 658.18 500.97 657.97 Z" />
<path fill="#ffffff" opacity="1.00" d=" M 526.38 651.33 C 531.25 649.89 535.46 655.46 534.88 659.95 C 534.62 663.33 535.62 667.36 533.03 670.07 C 531.43 672.32 528.31 672.91 525.80 672.10 C 523.63 671.50 522.75 669.17 521.53 667.52 C 520.90 663.86 521.04 660.08 521.38 656.40 C 522.62 654.36 523.95 652.08 526.38 651.33 M 527.32 654.36 C 522.91 656.42 523.33 662.53 524.41 666.46 C 524.85 669.86 530.29 670.40 531.32 667.18 C 532.68 664.67 532.13 661.73 532.09 659.01 C 531.74 656.77 529.95 653.75 527.32 654.36 Z" />
<path fill="#ffffff" opacity="1.00" d=" M 540.18 654.22 C 542.94 652.71 546.12 652.34 549.02 651.17 C 548.70 657.18 548.93 663.21 548.86 669.24 C 550.54 669.18 552.23 669.13 553.93 669.10 C 553.93 669.79 553.94 671.18 553.94 671.88 C 549.68 671.83 545.43 671.84 541.18 671.86 C 540.81 670.97 540.46 670.09 540.12 669.21 C 542.14 669.14 544.16 669.15 546.19 669.21 C 546.10 664.55 546.15 659.89 546.16 655.23 C 544.50 655.78 542.85 656.34 541.19 656.87 C 540.81 655.99 540.48 655.11 540.18 654.22 Z" />
<path fill="#ffffff" opacity="1.00" d=" M 560.21 661.19 C 560.59 655.18 566.87 650.66 572.65 651.14 C 573.94 652.00 573.90 653.53 574.11 654.91 C 571.61 654.45 568.79 653.85 566.56 655.46 C 564.88 657.06 563.75 659.12 562.73 661.19 C 564.90 660.30 567.11 658.19 569.57 659.49 C 574.53 660.65 574.77 667.08 572.74 670.85 C 569.89 672.42 565.76 673.48 563.20 670.83 C 560.36 668.53 559.81 664.61 560.21 661.19 M 562.84 666.71 C 564.31 667.94 565.75 669.75 567.93 669.21 C 570.92 669.81 571.42 666.41 571.26 664.22 C 569.95 663.45 568.89 661.62 567.16 662.25 C 564.80 662.50 563.86 664.92 562.84 666.71 Z" />
<path fill="#ffffff" opacity="1.00" d=" M 402.77 655.72 C 403.22 654.61 403.69 653.12 405.22 653.47 C 410.10 653.37 414.98 653.54 419.86 653.36 C 419.85 655.58 419.86 657.80 419.87 660.02 C 418.81 659.90 417.76 659.78 416.71 659.68 C 416.73 658.90 416.76 657.34 416.78 656.56 C 414.13 656.58 411.49 656.60 408.85 656.54 C 408.84 658.15 408.83 659.78 408.81 661.41 C 410.47 661.24 412.35 661.23 412.40 659.08 C 413.02 659.07 414.26 659.06 414.89 659.05 C 414.83 661.36 414.81 663.68 414.85 666.01 C 414.25 665.98 413.04 665.91 412.44 665.88 C 412.33 663.74 410.49 663.78 408.84 663.70 C 408.84 665.53 408.86 667.36 408.88 669.21 C 411.59 669.15 414.31 669.14 417.03 669.12 C 417.12 667.82 417.23 666.53 417.35 665.25 C 417.97 665.19 419.21 665.09 419.83 665.03 C 419.82 667.32 419.84 669.61 419.93 671.91 C 414.99 671.76 410.05 671.91 405.12 671.84 C 403.58 672.14 403.27 670.32 402.75 669.35 C 403.62 669.28 405.37 669.12 406.24 669.04 C 406.07 665.00 406.11 660.95 406.21 656.90 C 405.05 656.52 403.90 656.13 402.77 655.72 Z" />
<path fill="#ffffff" opacity="1.00" d=" M 427.71 653.81 C 430.97 652.04 434.56 654.41 437.95 653.38 C 438.85 654.99 438.92 656.83 438.97 658.65 C 438.44 659.07 437.38 659.92 436.85 660.34 C 435.85 658.62 434.96 656.44 432.85 655.87 C 431.06 655.52 429.46 656.58 427.83 657.09 C 427.83 657.78 427.82 659.16 427.82 659.85 C 431.48 661.43 435.96 661.17 438.89 664.23 C 438.79 666.09 438.78 667.96 438.88 669.83 C 436.22 671.80 432.60 673.31 429.39 671.73 C 427.77 670.74 426.00 671.79 424.30 671.91 C 424.19 669.87 424.14 667.84 424.13 665.81 C 426.45 665.69 427.84 667.47 429.39 668.89 C 431.95 669.65 435.14 669.50 436.66 666.95 C 434.32 662.83 428.24 665.11 425.57 661.40 C 423.73 658.91 424.83 654.91 427.71 653.81 Z" />
<path fill="#ffffff" opacity="1.00" d=" M 443.13 653.33 C 448.71 653.53 454.29 653.49 459.87 653.35 C 459.87 656.11 459.85 658.89 459.78 661.67 C 459.12 661.75 457.80 661.93 457.15 662.02 C 457.15 660.18 457.15 658.35 457.16 656.53 C 455.71 656.55 454.27 656.55 452.84 656.54 C 452.88 660.76 452.87 664.98 452.81 669.20 C 454.17 669.16 455.53 669.15 456.90 669.14 C 456.91 669.83 456.94 671.20 456.95 671.89 C 453.32 671.84 449.70 671.82 446.09 671.86 C 446.09 671.18 446.08 669.83 446.08 669.15 C 447.44 669.15 448.80 669.15 450.17 669.17 C 450.16 664.95 450.18 660.73 450.18 656.51 C 448.73 656.53 447.28 656.57 445.84 656.61 C 445.84 658.40 445.84 660.21 445.83 662.02 C 445.19 661.92 443.90 661.73 443.25 661.64 C 443.12 658.87 443.16 656.09 443.13 653.33 Z" />
<path fill="#ffffff" opacity="1.00" d=" M 467.42 669.36 C 468.21 668.48 469.41 667.82 470.63 668.15 C 472.02 668.95 471.87 670.53 472.00 671.93 C 470.09 673.10 466.74 671.90 467.42 669.36 Z" />
</g>
</svg>
